<svg width="24" height="24" viewBox="0 0 24 24" fill="none" xmlns="http://www.w3.org/2000/svg">
<path d="M11.999 19.5C16.1412 19.5 19.499 16.1421 19.499 12C19.499 7.85786 16.1412 4.5 11.999 4.5C7.85689 4.5 4.49902 7.85786 4.49902 12C4.49902 16.1421 7.85689 19.5 11.999 19.5Z" fill="#C7C7C7"/>
<path d="M9.81641 9.74994C9.99273 9.24869 10.3408 8.82602 10.7989 8.55679C11.257 8.28756 11.7956 8.18914 12.3193 8.27897C12.843 8.3688 13.318 8.64108 13.6602 9.04758C14.0024 9.45409 14.1897 9.96858 14.1889 10.4999C14.1889 11.9999 11.9389 12.7499 11.9389 12.7499" stroke="#ECF1F7" stroke-width="1.4" stroke-linecap="round" stroke-linejoin="round"/>
<path d="M11.999 15.75H12.0074" stroke="#ECF1F7" stroke-width="1.4" stroke-linecap="round" stroke-linejoin="round"/>
</svg>
